<svg width="311" height="89" viewBox="0 0 311 89" fill="none" xmlns="http://www.w3.org/2000/svg">
<path d="M107.361 24.8633L106.553 28.9062L89.7656 45.957H103.143L102.334 50H83.7012L84.5098 45.957L101.525 28.9062H88.2715L89.0801 24.8633H107.361ZM128.35 24.8633L127.541 28.8711H114.955L113.689 35.1992H125.678L124.852 39.3652H112.811L111.492 45.957H124.377L123.568 50H106.113L111.141 24.8633H128.35ZM149.338 24.8633L148.529 28.9062H141.322L137.104 50H132.445L136.664 28.9062H129.457L130.266 24.8633H149.338ZM149.725 50H144.768L160.465 24.8633H165.475L171.346 50H166.512L165.018 43.1445H156.668L159.076 39.1016H164.139L162.064 29.6621L149.725 50ZM174.422 49.9648L179.449 24.8633H190.875C196.008 24.8633 198.123 27.1074 197.221 31.5957C196.506 35.1465 194.004 37.6602 189.715 39.1367L195.516 50H190.084L184.617 39.0488L185.039 36.9219C189.352 36.1602 191.777 34.4316 192.316 31.7363C192.691 29.8848 191.836 28.959 189.75 28.959H183.369L179.168 49.9648H174.422ZM207.24 24.8633L202.213 50H197.555L202.582 24.8633H207.24ZM207.275 48.9453L208.119 44.7266C210.451 45.6641 213.205 46.1328 216.381 46.1328C220.236 46.1328 222.422 44.8438 222.938 42.2656C223.312 40.3906 222.316 39.4531 219.949 39.4531H216.012C210.867 39.4531 208.764 37.1094 209.701 32.4219C210.732 27.2656 214.91 24.6875 222.234 24.6875C225.047 24.6875 227.631 25.0977 229.986 25.918L229.143 30.1367C226.811 29.1992 224.238 28.7305 221.426 28.7305C217.207 28.7305 214.852 29.9609 214.359 32.4219C213.984 34.2969 214.816 35.2344 216.855 35.2344H220.793C226.266 35.2344 228.533 37.5781 227.596 42.2656C226.541 47.5391 222.533 50.1758 215.572 50.1758C212.396 50.1758 209.631 49.7656 207.275 48.9453ZM252.24 24.8633L251.432 28.8711H238.846L237.58 35.1992H249.568L248.742 39.3652H236.701L235.383 45.957H248.268L247.459 50H230.004L235.031 24.8633H252.24ZM85.5869 78.2383V75.1914C87.4066 75.8685 89.4632 76.207 91.7568 76.207C94.5413 76.207 95.9336 75.276 95.9336 73.4141C95.9336 72.0599 95.0788 71.3828 93.3691 71.3828H90.5254C86.8099 71.3828 84.9521 69.6901 84.9521 66.3047C84.9521 62.5807 87.597 60.7188 92.8867 60.7188C94.918 60.7188 96.8434 61.015 98.6631 61.6074V64.6543C96.8434 63.9772 94.918 63.6387 92.8867 63.6387C89.8398 63.6387 88.3164 64.5273 88.3164 66.3047C88.3164 67.6589 89.0527 68.3359 90.5254 68.3359H93.3691C97.3216 68.3359 99.2979 70.0286 99.2979 73.4141C99.2979 77.2227 96.7842 79.127 91.7568 79.127C89.4632 79.127 87.4066 78.8307 85.5869 78.2383ZM106.311 69.8721C106.311 74.0954 108.185 76.207 111.935 76.207C115.591 76.207 117.419 74.0954 117.419 69.8721C117.419 65.7165 115.591 63.6387 111.935 63.6387C108.185 63.6387 106.311 65.7165 106.311 69.8721ZM102.82 69.9482C102.82 63.7952 105.858 60.7188 111.935 60.7188C117.918 60.7188 120.91 63.7952 120.91 69.9482C120.91 76.0674 117.918 79.127 111.935 79.127C106.129 79.127 103.09 76.0674 102.82 69.9482ZM128.761 60.8457V76.0801H135.972V79H125.397V60.8457H128.761ZM140.459 71.8652V60.8457H143.823V71.8652C143.823 74.7598 145.304 76.207 148.266 76.207C151.228 76.207 152.71 74.7598 152.71 71.8652V60.8457H156.074V71.8652C156.074 76.7064 153.471 79.127 148.266 79.127C143.061 79.127 140.459 76.7064 140.459 71.8652ZM173.053 60.8457V63.7656H167.847V79H164.483V63.7656H159.278V60.8457H173.053ZM179.634 60.8457V79H176.27V60.8457H179.634ZM187.612 69.8721C187.612 74.0954 189.486 76.207 193.236 76.207C196.892 76.207 198.72 74.0954 198.72 69.8721C198.72 65.7165 196.892 63.6387 193.236 63.6387C189.486 63.6387 187.612 65.7165 187.612 69.8721ZM184.12 69.9482C184.12 63.7952 187.159 60.7188 193.236 60.7188C199.219 60.7188 202.211 63.7952 202.211 69.9482C202.211 76.0674 199.219 79.127 193.236 79.127C187.43 79.127 184.391 76.0674 184.12 69.9482ZM206.698 79V60.8457H210.062L219.647 74.0742V60.8457H222.884V79H219.52L209.935 65.4922V79H206.698ZM227.688 78.2383V75.1914C229.508 75.8685 231.564 76.207 233.858 76.207C236.643 76.207 238.035 75.276 238.035 73.4141C238.035 72.0599 237.18 71.3828 235.47 71.3828H232.627C228.911 71.3828 227.053 69.6901 227.053 66.3047C227.053 62.5807 229.698 60.7188 234.988 60.7188C237.019 60.7188 238.945 61.015 240.764 61.6074V64.6543C238.945 63.9772 237.019 63.6387 234.988 63.6387C231.941 63.6387 230.418 64.5273 230.418 66.3047C230.418 67.6589 231.154 68.3359 232.627 68.3359H235.47C239.423 68.3359 241.399 70.0286 241.399 73.4141C241.399 77.2227 238.885 79.127 233.858 79.127C231.564 79.127 229.508 78.8307 227.688 78.2383Z" fill="#004AAD"/>
<path d="M66.8763 23H37.6996L38.1164 23.3685L38.95 23.7369L39.3668 24.1053L40.2005 24.8422L41.0341 25.579L41.8677 26.6843L42.2845 27.7895L42.7013 29.2632V30.7369L43.1181 31.1053L11.8574 78.2632L6.85567 86H25.6121H36.0324V85.6316L35.1987 85.2632L34.7819 84.8948L33.5315 83.7895L32.2811 81.9474L31.4474 78.6316V76.0527L66.8763 23Z" fill="url(#paint0_linear_30_113)"/>
<path d="M0 36.1539C0 28.8892 5.88918 23 13.1538 23H38.0726C41.7049 23 44.6495 25.9446 44.6495 29.5769C44.6495 33.2093 41.7049 36.1539 38.0726 36.1539H0Z" fill="url(#paint1_linear_30_113)"/>
<path d="M35.5769 86.1538C31.9446 86.1538 29 83.2092 29 79.5769C29 75.9446 31.9446 73 35.5769 73H73.6495C73.6495 80.2647 67.7603 86.1538 60.4956 86.1538H35.5769Z" fill="url(#paint2_linear_30_113)"/>
<defs>
<linearGradient id="paint0_linear_30_113" x1="59.5" y1="23" x2="17.5" y2="86" gradientUnits="userSpaceOnUse">
<stop stop-color="#00D4FF"/>
<stop offset="0.5" stop-color="#0159B6" stop-opacity="0.97"/>
<stop offset="1" stop-color="#01D4FF"/>
</linearGradient>
<linearGradient id="paint1_linear_30_113" x1="2.5" y1="30" x2="43.5" y2="30" gradientUnits="userSpaceOnUse">
<stop stop-color="#00D4FF"/>
<stop offset="1" stop-color="#004AAD"/>
</linearGradient>
<linearGradient id="paint2_linear_30_113" x1="29" y1="79.8721" x2="73.3035" y2="79.6703" gradientUnits="userSpaceOnUse">
<stop offset="0.219506" stop-color="#014EAF"/>
<stop offset="0.67789" stop-color="#01BBFA"/>
</linearGradient>
</defs>
</svg>
